<?xml version="1.0" standalone="no"?>
<!DOCTYPE svg PUBLIC "-//W3C//DTD SVG 20010904//EN"
 "http://www.w3.org/TR/2001/REC-SVG-20010904/DTD/svg10.dtd">
<svg version="1.0" xmlns="http://www.w3.org/2000/svg"
 width="512.000000pt" height="512.000000pt" viewBox="0 0 512.000000 512.000000"
 preserveAspectRatio="xMidYMid meet">
<metadata>
Created by potrace 1.14, written by Peter Selinger 2001-2017
</metadata>
<g transform="translate(0.000000,512.000000) scale(0.100000,-0.100000)"
fill="#000000" stroke="none">
<path d="M1465 3820 c-131 -19 -279 -117 -398 -263 -52 -63 -157 -219 -157
-233 0 -6 33 -31 73 -54 39 -24 86 -51 103 -62 l32 -18 28 47 c15 27 30 50 34
53 4 3 19 24 34 48 42 68 156 177 215 206 105 53 202 25 316 -91 62 -63 102
-119 255 -359 169 -265 360 -405 555 -407 138 -2 259 52 379 168 56 55 153
170 183 220 7 11 36 58 64 105 121 198 229 322 321 368 135 67 283 -19 443
-259 l66 -97 105 60 c57 33 104 64 104 69 0 4 -32 57 -72 116 -207 312 -453
442 -687 363 -157 -53 -324 -210 -456 -430 -151 -252 -236 -353 -347 -409 -67
-34 -124 -34 -193 0 -82 41 -196 167 -285 313 -105 173 -180 276 -259 356
-147 148 -301 212 -456 190z"/>
<path d="M3530 1858 l0 -548 78 0 77 0 0 548 0 547 -77 1 -78 1 0 -549z"/>
<path d="M3939 2406 c-1 0 -2 -247 -3 -549 l-1 -547 80 0 80 0 -2 518 c-1 284
-2 531 -2 547 l-1 31 -75 1 c-41 0 -75 0 -76 -1z"/>
<path d="M3146 2365 c-14 -13 -27 -32 -28 -42 0 -10 -2 -25 -3 -33 -2 -23 22
-67 42 -75 42 -19 86 -13 115 15 84 84 -39 216 -126 135z"/>
<path d="M479 2069 c-37 -8 -100 -40 -131 -67 -17 -14 -18 -12 -18 22 l0 37
-77 -3 -78 -3 0 -372 0 -373 80 0 80 0 -1 228 c-2 238 3 277 44 331 46 62 139
82 205 44 18 -10 42 -38 55 -63 21 -42 22 -55 22 -292 l0 -248 79 0 78 0 0
223 c0 225 2 244 29 307 51 118 222 125 280 10 16 -30 19 -66 21 -270 1 -129
2 -243 2 -252 1 -16 11 -18 75 -18 50 0 75 4 78 13 2 6 4 122 3 257 -1 193 -5
257 -18 300 -38 131 -141 201 -283 194 -67 -3 -150 -34 -189 -70 -52 -48 -52
-48 -85 -11 -57 65 -159 96 -251 76z"/>
<path d="M2582 2062 c-108 -30 -180 -128 -170 -232 10 -98 70 -148 248 -204
47 -15 95 -37 108 -48 42 -41 23 -110 -38 -135 -60 -24 -180 9 -231 63 l-21
22 -49 -48 c-27 -27 -49 -51 -49 -54 0 -3 15 -20 33 -37 123 -119 352 -127
467 -17 103 98 86 269 -33 329 -23 12 -86 37 -140 55 -54 18 -107 40 -117 49
-50 46 -17 115 64 129 34 6 113 -19 141 -45 21 -19 22 -18 74 35 l52 53 -36
27 c-84 65 -201 87 -303 58z"/>
<path d="M4513 2060 c-66 -18 -120 -49 -166 -96 l-28 -28 50 -50 50 -49 40 36
c67 60 171 78 241 42 36 -19 70 -66 70 -98 0 -22 -6 -26 -43 -31 -161 -24
-272 -48 -312 -65 -78 -35 -123 -99 -131 -187 -19 -201 252 -312 444 -183 24
16 45 29 46 29 2 0 2 -16 -1 -35 l-5 -35 81 0 81 0 0 270 c0 264 0 270 -24
322 -30 65 -59 98 -117 131 -76 44 -181 54 -276 27z m256 -442 c-9 -70 -21
-98 -55 -130 -40 -38 -90 -55 -150 -53 -60 3 -102 27 -119 69 -26 61 23 117
115 131 25 3 61 9 80 12 19 3 53 9 75 13 22 4 45 8 51 9 7 1 8 -16 3 -51z"/>
<path d="M1525 1793 c2 -265 2 -269 28 -323 14 -30 34 -64 44 -76 97 -112 289
-133 411 -44 23 16 43 30 46 30 2 0 2 -16 0 -35 l-2 -35 79 0 c75 0 79 1 80
23 0 12 1 181 2 375 l2 352 -80 0 -80 0 0 -238 c-1 -224 -2 -239 -23 -283 -44
-90 -147 -128 -244 -90 -39 15 -86 68 -98 110 -5 20 -10 141 -10 269 l0 232
-79 0 -78 0 2 -267z"/>
<path d="M3130 1685 l0 -376 78 3 77 3 1 373 0 372 -78 0 -78 0 0 -375z"/>
</g>
</svg>
